<?xml version="1.0" encoding="iso-8859-1"?>
<!-- Generator: Adobe Illustrator 19.0.0, SVG Export Plug-In . SVG Version: 6.00 Build 0)  -->
<svg version="1.1" id="Capa_1" xmlns="http://www.w3.org/2000/svg" xmlns:xlink="http://www.w3.org/1999/xlink" x="0px" y="0px"
	 viewBox="0 0 512 512" style="enable-background:new 0 0 512 512;" xml:space="preserve">
<path style="fill:#FDA916;" d="M264.225,512h-16.45l-111.17-139.455C94.299,319.475,71,252.87,71,185C71,82.991,153.991,0,256,0
	s185,82.991,185,185c0,67.87-23.299,134.475-65.605,187.545L264.225,512z"/>
<path style="fill:#FD9200;" d="M256,0v512h8.225l111.169-139.455C417.701,319.475,441,252.87,441,185C441,82.991,358.009,0,256,0z"
	/>
<path style="fill:#E4F7FF;" d="M256,326.059c-41.355,0-75-33.645-75-75c0-26.143,8.975-51.799,25.271-72.242l49.268-61.803
	l50.19,61.803C322.025,199.26,331,224.916,331,251.059C331,292.414,297.355,326.059,256,326.059z"/>
<path style="fill:#CBEDFD;" d="M305.729,178.816L256,117.581v208.477c41.355,0,75-33.645,75-75
	C331,224.916,322.025,199.26,305.729,178.816z"/>
<g>
</g>
<g>
</g>
<g>
</g>
<g>
</g>
<g>
</g>
<g>
</g>
<g>
</g>
<g>
</g>
<g>
</g>
<g>
</g>
<g>
</g>
<g>
</g>
<g>
</g>
<g>
</g>
<g>
</g>
</svg>
